<svg width="305" height="78" viewBox="0 0 305 78" fill="none" xmlns="http://www.w3.org/2000/svg">
<g clip-path="url(#clip0_41_50)">
<path fill-rule="evenodd" clip-rule="evenodd" d="M28.6905 4.57052C32.8628 3.80983 37.1382 3.80983 41.3105 4.57052C42.2676 4.77118 43.1085 5.33779 43.6539 6.14955C44.1992 6.96132 44.4059 7.954 44.2298 8.91595C44.0537 9.8779 43.5088 10.733 42.7113 11.299C41.9137 11.8649 40.9267 12.0969 39.9605 11.9455C36.6792 11.3477 33.3168 11.3477 30.0355 11.9455C29.5447 12.0503 29.0378 12.0555 28.5449 11.9608C28.052 11.866 27.5832 11.6733 27.1661 11.3941C26.7491 11.1148 26.3924 10.7547 26.1171 10.335C25.8418 9.91536 25.6535 9.4447 25.5635 8.95095C25.4734 8.45719 25.4834 7.95038 25.5929 7.46056C25.7023 6.97073 25.9089 6.50785 26.2005 6.09936C26.4921 5.69086 26.8628 5.34506 27.2905 5.08245C27.7182 4.81984 28.1943 4.64575 28.6905 4.57052ZM20.3305 11.1455C20.6111 11.5506 20.8091 12.0069 20.9132 12.4886C21.0174 12.9702 21.0255 13.4676 20.9373 13.9524C20.8491 14.4372 20.6662 14.8998 20.3991 15.3139C20.1319 15.7279 19.7858 16.0853 19.3805 16.3655C16.6387 18.2622 14.2622 20.6387 12.3655 23.3805C12.0855 23.7856 11.7284 24.1316 11.3146 24.3988C10.9009 24.6659 10.4385 24.8489 9.95404 24.9373C9.46955 25.0258 8.97238 25.0179 8.49092 24.9143C8.00947 24.8106 7.55315 24.6131 7.14802 24.333C6.32982 23.7674 5.76982 22.9 5.59119 21.9215C5.50274 21.437 5.51059 20.9399 5.61428 20.4584C5.71797 19.977 5.91547 19.5206 6.19552 19.1155C8.60704 15.629 11.629 12.607 15.1155 10.1955C15.9332 9.63041 16.9418 9.41303 17.9196 9.59117C18.8975 9.7693 19.7646 10.3284 20.3305 11.1455ZM49.6705 11.1455C50.2364 10.3284 51.1035 9.7693 52.0814 9.59117C53.0593 9.41303 54.0678 9.63041 54.8855 10.1955C58.372 12.6071 61.3939 15.629 63.8055 19.1155C64.0856 19.5206 64.2831 19.977 64.3868 20.4584C64.4905 20.9399 64.4983 21.437 64.4098 21.9215C64.3214 22.406 64.1384 22.8684 63.8713 23.2821C63.6042 23.6959 63.2581 24.053 62.853 24.333C62.4479 24.6131 61.9916 24.8106 61.5101 24.9143C61.0287 25.0179 60.5315 25.0258 60.047 24.9373C59.5625 24.8489 59.1002 24.6659 58.6864 24.3988C58.2727 24.1316 57.9156 23.7856 57.6355 23.3805C55.7388 20.6387 53.3623 18.2622 50.6205 16.3655C50.2152 16.0853 49.8691 15.7279 49.602 15.3139C49.3349 14.8998 49.1519 14.4372 49.0637 13.9524C48.9755 13.4676 48.9837 12.9702 49.0878 12.4886C49.1919 12.0069 49.3899 11.5506 49.6705 11.1455ZM4.93052 29.6755C5.90829 29.8543 6.77509 30.4139 7.34043 31.2315C7.90578 32.049 8.12341 33.0576 7.94552 34.0355C7.34705 37.3185 7.34705 40.6826 7.94552 43.9655C8.0503 44.4564 8.05548 44.9632 7.96076 45.4561C7.86603 45.949 7.67333 46.4179 7.39408 46.8349C7.11482 47.2519 6.75469 47.6087 6.33503 47.884C5.91536 48.1592 5.4447 48.3475 4.95095 48.4375C4.45719 48.5276 3.95038 48.5176 3.46056 48.4082C2.97073 48.2988 2.50785 48.0921 2.09936 47.8005C1.69086 47.5089 1.34506 47.1383 1.08245 46.7105C0.819835 46.2828 0.645752 45.8067 0.570517 45.3105C-0.190172 41.1382 -0.190172 36.8628 0.570517 32.6905C0.749288 31.7127 1.30894 30.8459 2.12649 30.2806C2.94403 29.7153 3.95259 29.4976 4.93052 29.6755ZM65.0705 29.6755C65.5551 29.5867 66.0525 29.5943 66.5341 29.6977C67.0158 29.8012 67.4724 29.9986 67.8777 30.2786C68.2831 30.5586 68.6293 30.9157 68.8966 31.3296C69.1639 31.7434 69.347 32.2059 69.4355 32.6905C70.1958 36.8628 70.1958 41.1382 69.4355 45.3105C69.2565 46.2892 68.696 47.1566 67.8774 47.722C67.0588 48.2875 66.0492 48.5045 65.0705 48.3255C64.0919 48.1465 63.2244 47.586 62.659 46.7674C62.0936 45.9489 61.8765 44.9392 62.0555 43.9605C62.6529 40.6792 62.6529 37.3169 62.0555 34.0355C61.8776 33.0576 62.0953 32.049 62.6606 31.2315C63.2259 30.4139 64.0927 29.8543 65.0705 29.6755ZM7.15052 53.6705C7.55557 53.3899 8.01195 53.1919 8.49357 53.0878C8.97519 52.9837 9.47261 52.9755 9.9574 53.0637C10.4422 53.1519 10.9048 53.3349 11.3189 53.602C11.7329 53.8691 12.0903 54.2152 12.3705 54.6205C14.2672 57.3623 16.6437 59.7388 19.3855 61.6355C19.7906 61.9156 20.1366 62.2727 20.4038 62.6864C20.6709 63.1002 20.8539 63.5625 20.9423 64.047C21.0308 64.5315 21.0229 65.0287 20.9193 65.5101C20.8156 65.9916 20.6181 66.4479 20.338 66.853C20.058 67.2581 19.7009 67.6042 19.2871 67.8713C18.8734 68.1384 18.411 68.3214 17.9265 68.4098C17.442 68.4983 16.9449 68.4905 16.4634 68.3868C15.982 68.2831 15.5256 68.0856 15.1205 67.8055C11.634 65.3939 8.61212 62.372 6.20052 58.8855C5.63541 58.0678 5.41804 57.0593 5.59617 56.0814C5.7743 55.1035 6.33337 54.2364 7.15052 53.6705ZM62.8605 53.6705C63.6777 54.2364 64.2367 55.1035 64.4149 56.0814C64.593 57.0593 64.3756 58.0678 63.8105 58.8855C61.3989 62.372 58.377 65.3939 54.8905 67.8055C54.0723 68.3711 53.063 68.5885 52.0845 68.4098C51.106 68.2312 50.2386 67.6712 49.673 66.853C49.1074 66.0348 48.8901 65.0255 49.0687 64.047C49.2473 63.0685 49.8073 62.2011 50.6255 61.6355C53.3674 59.7389 55.7439 57.3624 57.6405 54.6205C57.9207 54.2152 58.2781 53.8691 58.6922 53.602C59.1062 53.3349 59.5689 53.1519 60.0536 53.0637C60.5384 52.9755 61.0358 52.9837 61.5175 53.0878C61.9991 53.1919 62.4555 53.3899 62.8605 53.6705ZM25.6805 69.0705C25.8593 68.0927 26.4189 67.2259 27.2365 66.6606C28.054 66.0953 29.0626 65.8776 30.0405 66.0555C33.3235 66.6535 36.6875 66.6535 39.9705 66.0555C40.4551 65.9672 40.9523 65.9752 41.4338 66.079C41.9153 66.1829 42.3716 66.3806 42.7767 66.6608C43.1818 66.941 43.5277 67.2982 43.7948 67.7121C44.0618 68.126 44.2447 68.5884 44.333 69.073C44.4213 69.5576 44.4133 70.0548 44.3095 70.5363C44.2056 71.0178 44.008 71.4741 43.7278 71.8792C43.4476 72.2843 43.0903 72.6302 42.6764 72.8973C42.2625 73.1643 41.8001 73.3472 41.3155 73.4355C37.1432 74.1958 32.8678 74.1958 28.6955 73.4355C28.2109 73.347 27.7484 73.1639 27.3345 72.8966C26.9207 72.6293 26.5636 72.2831 26.2836 71.8777C26.0036 71.4724 25.8062 71.0158 25.7027 70.5341C25.5993 70.0525 25.5917 69.5551 25.6805 69.0705Z" fill="white"/>
</g>
<path d="M86.024 16.176H95.176L102.28 42.928L103.304 47.856H103.816L105.16 42.928L111.752 22.32H119.816L126.472 42.928L127.752 47.792H128.264L129.224 42.928L135.88 16.176H145.032L132.872 62H124.552L117.384 39.92L116.04 34.864H115.528L114.184 39.92L107.016 62H98.696L86.024 16.176ZM160.995 29.616C163.427 29.616 165.645 30.0427 167.651 30.896C169.699 31.7067 171.448 32.8587 172.899 34.352C174.392 35.8027 175.544 37.552 176.354 39.6C177.208 41.648 177.635 43.888 177.635 46.32C177.635 48.752 177.208 50.992 176.354 53.04C175.544 55.088 174.392 56.8587 172.899 58.352C171.448 59.8027 169.699 60.9547 167.651 61.808C165.645 62.6187 163.427 63.024 160.995 63.024C158.563 63.024 156.323 62.6187 154.275 61.808C152.269 60.9547 150.52 59.8027 149.027 58.352C147.576 56.8587 146.424 55.088 145.571 53.04C144.76 50.992 144.355 48.752 144.355 46.32C144.355 43.888 144.76 41.648 145.571 39.6C146.424 37.552 147.576 35.8027 149.027 34.352C150.52 32.8587 152.269 31.7067 154.275 30.896C156.323 30.0427 158.563 29.616 160.995 29.616ZM160.995 55.28C162.061 55.28 163.085 55.088 164.067 54.704C165.091 54.2773 165.987 53.68 166.755 52.912C167.523 52.144 168.12 51.2053 168.547 50.096C169.016 48.9867 169.251 47.728 169.251 46.32C169.251 44.912 169.016 43.6533 168.547 42.544C168.12 41.4347 167.523 40.496 166.755 39.728C165.987 38.96 165.091 38.384 164.067 38C163.085 37.5733 162.061 37.36 160.995 37.36C159.885 37.36 158.84 37.5733 157.859 38C156.877 38.384 156.003 38.96 155.235 39.728C154.467 40.496 153.848 41.4347 153.379 42.544C152.952 43.6533 152.739 44.912 152.739 46.32C152.739 47.728 152.952 48.9867 153.379 50.096C153.848 51.2053 154.467 52.144 155.235 52.912C156.003 53.68 156.877 54.2773 157.859 54.704C158.84 55.088 159.885 55.28 160.995 55.28ZM182.397 30.64H190.269V34.992H190.781C191.165 34.224 191.677 33.52 192.317 32.88C192.957 32.24 193.661 31.6853 194.429 31.216C195.239 30.7467 196.093 30.384 196.989 30.128C197.927 29.872 198.845 29.744 199.741 29.744C200.85 29.744 201.789 29.8507 202.557 30.064C203.367 30.2773 204.05 30.5547 204.605 30.896L202.365 38.512C201.853 38.256 201.277 38.064 200.637 37.936C200.039 37.7653 199.293 37.68 198.397 37.68C197.245 37.68 196.199 37.9147 195.26 38.384C194.322 38.8107 193.511 39.4293 192.829 40.24C192.189 41.0507 191.677 42.0107 191.293 43.12C190.951 44.1867 190.781 45.36 190.781 46.64V62H182.397V30.64ZM208.772 16.176H217.156V41.136H217.54L228.036 30.64H238.404V31.152L226.756 42.48L239.364 61.488V62H229.444L220.868 48.24L217.156 51.888V62H208.772V16.176ZM254.677 62H246.293V37.808H240.661V30.64H246.293V27.568C246.293 25.648 246.57 23.9627 247.125 22.512C247.722 21.0187 248.554 19.7813 249.621 18.8C250.688 17.776 251.946 17.008 253.397 16.496C254.848 15.9413 256.448 15.664 258.197 15.664C259.05 15.664 259.733 15.7067 260.245 15.792C260.757 15.8773 261.248 16.0053 261.717 16.176L261.205 24.048C260.906 23.92 260.565 23.8133 260.181 23.728C259.797 23.6427 259.306 23.6 258.709 23.6C257.472 23.6 256.49 24.0053 255.765 24.816C255.04 25.584 254.677 26.672 254.677 28.08V30.64H274.901V62H266.517V37.808H254.677V62ZM270.677 26.096C269.952 26.096 269.248 25.968 268.565 25.712C267.925 25.4133 267.349 25.0293 266.837 24.56C266.368 24.048 265.984 23.472 265.685 22.832C265.429 22.192 265.301 21.488 265.301 20.72C265.301 19.952 265.429 19.248 265.685 18.608C265.984 17.968 266.368 17.4133 266.837 16.944C267.349 16.432 267.925 16.048 268.565 15.792C269.248 15.4933 269.952 15.344 270.677 15.344C272.17 15.344 273.45 15.8773 274.517 16.944C275.584 17.968 276.117 19.2267 276.117 20.72C276.117 22.2133 275.584 23.4933 274.517 24.56C273.45 25.584 272.17 26.096 270.677 26.096ZM285.728 37.808H280.224V30.64H285.728V21.04H294.112V30.64H301.792V37.808H294.112V49.968C294.112 50.6933 294.176 51.376 294.304 52.016C294.474 52.6133 294.773 53.1253 295.2 53.552C295.797 54.2347 296.65 54.576 297.76 54.576C298.485 54.576 299.061 54.512 299.488 54.384C299.914 54.2133 300.32 54 300.704 53.744L303.072 61.104C302.09 61.5733 301.024 61.9147 299.872 62.128C298.762 62.384 297.525 62.512 296.16 62.512C294.581 62.512 293.152 62.2773 291.872 61.808C290.634 61.296 289.589 60.6133 288.736 59.76C286.73 57.84 285.728 55.1093 285.728 51.568V37.808Z" fill="white"/>
<defs>
<clipPath id="clip0_41_50">
<rect width="70" height="70" fill="white" transform="translate(0 4)"/>
</clipPath>
</defs>
</svg>
