<svg width="155" height="39" viewBox="0 0 155 39" fill="none" xmlns="http://www.w3.org/2000/svg">
<g clip-path="url(#clip0_53_295)">
<path fill-rule="evenodd" clip-rule="evenodd" d="M12.2959 4.74451C14.0841 4.4185 15.9164 4.4185 17.7045 4.74451C18.1147 4.8305 18.4751 5.07334 18.7088 5.42124C18.9425 5.76914 19.0311 6.19457 18.9556 6.60684C18.8802 7.0191 18.6466 7.38558 18.3048 7.62813C17.963 7.87067 17.54 7.97011 17.1259 7.90522C15.7197 7.649 14.2786 7.649 12.8724 7.90522C12.662 7.95013 12.4448 7.95235 12.2335 7.91175C12.0223 7.87116 11.8214 7.78857 11.6426 7.66889C11.4639 7.54921 11.311 7.39487 11.193 7.21501C11.0751 7.03515 10.9944 6.83344 10.9558 6.62183C10.9172 6.41022 10.9215 6.19302 10.9684 5.9831C11.0153 5.77317 11.1038 5.57479 11.2288 5.39973C11.3538 5.22466 11.5126 5.07646 11.6959 4.96391C11.8792 4.85136 12.0833 4.77675 12.2959 4.74451ZM8.71308 7.56236C8.83333 7.73596 8.9182 7.93155 8.96282 8.13796C9.00744 8.34437 9.01095 8.55755 8.97314 8.76531C8.93532 8.97308 8.85694 9.17135 8.74246 9.34881C8.62797 9.52626 8.47964 9.67941 8.30594 9.79951C7.13089 10.6124 6.11238 11.6309 5.29951 12.8059C5.17949 12.9796 5.02645 13.1278 4.84912 13.2423C4.67179 13.3568 4.47365 13.4352 4.26602 13.4731C4.05838 13.5111 3.84531 13.5077 3.63897 13.4633C3.43263 13.4188 3.23706 13.3342 3.06344 13.2142C2.71278 12.9718 2.47278 12.6 2.39622 12.1807C2.35832 11.973 2.36168 11.7599 2.40612 11.5536C2.45056 11.3473 2.5352 11.1517 2.65522 10.9781C3.68873 9.48384 4.98384 8.18873 6.47808 7.15522C6.82851 6.91303 7.26076 6.81987 7.67985 6.89622C8.09893 6.97256 8.47056 7.21216 8.71308 7.56236ZM21.2874 7.56236C21.5299 7.21216 21.9015 6.97256 22.3206 6.89622C22.7397 6.81987 23.1719 6.91303 23.5224 7.15522C25.0166 8.18877 26.3117 9.48387 27.3452 10.9781C27.4652 11.1517 27.5499 11.3473 27.5943 11.5536C27.6388 11.7599 27.6421 11.973 27.6042 12.1807C27.5663 12.3883 27.4879 12.5864 27.3734 12.7638C27.2589 12.9411 27.1106 13.0941 26.937 13.2142C26.7634 13.3342 26.5678 13.4188 26.3615 13.4633C26.1551 13.5077 25.9421 13.5111 25.7344 13.4731C25.5268 13.4352 25.3287 13.3568 25.1513 13.2423C24.974 13.1278 24.821 12.9796 24.7009 12.8059C23.8881 11.6309 22.8696 10.6124 21.6945 9.79951C21.5208 9.67941 21.3725 9.52626 21.258 9.34881C21.1435 9.17135 21.0651 8.97308 21.0273 8.76531C20.9895 8.55755 20.993 8.34437 21.0376 8.13796C21.0822 7.93155 21.1671 7.73596 21.2874 7.56236ZM2.11308 15.5038C2.53212 15.5804 2.90361 15.8203 3.1459 16.1706C3.38819 16.521 3.48146 16.9533 3.40522 17.3724C3.14874 18.7793 3.14874 20.2211 3.40522 21.6281C3.45013 21.8384 3.45235 22.0557 3.41175 22.2669C3.37116 22.4781 3.28857 22.6791 3.16889 22.8578C3.04921 23.0365 2.89487 23.1894 2.71501 23.3074C2.53515 23.4254 2.33344 23.5061 2.12183 23.5447C1.91022 23.5833 1.69302 23.579 1.4831 23.5321C1.27317 23.4852 1.07479 23.3966 0.899725 23.2716C0.724656 23.1467 0.576455 22.9878 0.463907 22.8045C0.351358 22.6212 0.276751 22.4172 0.244507 22.2045C-0.0815025 20.4164 -0.0815025 18.5841 0.244507 16.7959C0.321124 16.3769 0.560974 16.0054 0.911351 15.7631C1.26173 15.5208 1.69397 15.4276 2.11308 15.5038ZM27.8874 15.5038C28.095 15.4657 28.3082 15.469 28.5146 15.5133C28.7211 15.5577 28.9167 15.6422 29.0905 15.7622C29.2642 15.8822 29.4126 16.0353 29.5271 16.2127C29.6417 16.39 29.7202 16.5882 29.7581 16.7959C30.0839 18.5841 30.0839 20.4164 29.7581 22.2045C29.6814 22.6239 29.4412 22.9957 29.0903 23.238C28.7395 23.4803 28.3068 23.5734 27.8874 23.4966C27.4679 23.4199 27.0962 23.1797 26.8539 22.8289C26.6115 22.4781 26.5185 22.0454 26.5952 21.6259C26.8513 20.2196 26.8513 18.7787 26.5952 17.3724C26.519 16.9533 26.6123 16.521 26.8545 16.1706C27.0968 15.8203 27.4683 15.5804 27.8874 15.5038ZM3.06451 25.7874C3.2381 25.6671 3.43369 25.5822 3.6401 25.5376C3.84651 25.493 4.05969 25.4895 4.26746 25.5273C4.47522 25.5651 4.6735 25.6435 4.85095 25.758C5.0284 25.8725 5.18156 26.0208 5.30165 26.1945C6.11453 27.3696 7.13303 28.3881 8.30808 29.2009C8.4817 29.321 8.62999 29.474 8.74447 29.6513C8.85895 29.8287 8.93739 30.0268 8.97529 30.2344C9.0132 30.4421 9.00984 30.6551 8.9654 30.8615C8.92096 31.0678 8.83631 31.2634 8.71629 31.437C8.59627 31.6106 8.44323 31.7589 8.26591 31.8734C8.08858 31.9879 7.89044 32.0663 7.6828 32.1042C7.47516 32.1421 7.26209 32.1388 7.05575 32.0943C6.84941 32.0499 6.65385 31.9652 6.48022 31.8452C4.98601 30.8117 3.69091 29.5166 2.65736 28.0224C2.41517 27.6719 2.32201 27.2397 2.39836 26.8206C2.4747 26.4015 2.7143 26.0299 3.06451 25.7874ZM26.9402 25.7874C27.2904 26.0299 27.53 26.4015 27.6064 26.8206C27.6827 27.2397 27.5896 27.6719 27.3474 28.0224C26.3138 29.5166 25.0187 30.8117 23.5245 31.8452C23.1739 32.0876 22.7413 32.1808 22.3219 32.1042C21.9026 32.0277 21.5308 31.7877 21.2884 31.437C21.046 31.0864 20.9529 30.6538 21.0294 30.2344C21.106 29.8151 21.346 29.4433 21.6967 29.2009C22.8717 28.3881 23.8902 27.3696 24.7031 26.1945C24.8232 26.0208 24.9763 25.8725 25.1538 25.758C25.3312 25.6435 25.5295 25.5651 25.7373 25.5273C25.945 25.4895 26.1582 25.493 26.3646 25.5376C26.571 25.5822 26.7666 25.6671 26.9402 25.7874ZM11.0059 32.3874C11.0826 31.9683 11.3224 31.5968 11.6728 31.3545C12.0232 31.1123 12.4554 31.019 12.8745 31.0952C14.2815 31.3515 15.7232 31.3515 17.1302 31.0952C17.3379 31.0574 17.551 31.0608 17.7573 31.1053C17.9637 31.1498 18.1593 31.2345 18.3329 31.3546C18.5065 31.4747 18.6547 31.6278 18.7692 31.8052C18.8836 31.9826 18.962 32.1808 18.9999 32.3884C19.0377 32.5961 19.0343 32.8092 18.9898 33.0156C18.9453 33.2219 18.8606 33.4175 18.7405 33.5911C18.6204 33.7647 18.4673 33.913 18.2899 34.0274C18.1125 34.1418 17.9143 34.2202 17.7067 34.2581C15.9185 34.5839 14.0862 34.5839 12.2981 34.2581C12.0904 34.2202 11.8922 34.1417 11.7148 34.0271C11.5374 33.9126 11.3844 33.7642 11.2644 33.5905C11.1444 33.4167 11.0598 33.2211 11.0155 33.0146C10.9711 32.8082 10.9679 32.595 11.0059 32.3874Z" fill="black"/>
</g>
<path d="M45.512 8.088H50.088L53.64 21.464L54.152 23.928H54.408L55.08 21.464L58.376 11.16H62.408L65.736 21.464L66.376 23.896H66.632L67.112 21.464L70.44 8.088H75.016L68.936 31H64.776L61.192 19.96L60.52 17.432H60.264L59.592 19.96L56.008 31H51.848L45.512 8.088ZM82.9973 14.808C84.2133 14.808 85.3226 15.0213 86.3253 15.448C87.3493 15.8533 88.2239 16.4293 88.9493 17.176C89.6959 17.9013 90.2719 18.776 90.6772 19.8C91.1039 20.824 91.3173 21.944 91.3173 23.16C91.3173 24.376 91.1039 25.496 90.6772 26.52C90.2719 27.544 89.6959 28.4293 88.9493 29.176C88.2239 29.9013 87.3493 30.4773 86.3253 30.904C85.3226 31.3093 84.2133 31.512 82.9973 31.512C81.7813 31.512 80.6613 31.3093 79.6373 30.904C78.6346 30.4773 77.7599 29.9013 77.0133 29.176C76.2879 28.4293 75.7119 27.544 75.2853 26.52C74.8799 25.496 74.6773 24.376 74.6773 23.16C74.6773 21.944 74.8799 20.824 75.2853 19.8C75.7119 18.776 76.2879 17.9013 77.0133 17.176C77.7599 16.4293 78.6346 15.8533 79.6373 15.448C80.6613 15.0213 81.7813 14.808 82.9973 14.808ZM82.9973 27.64C83.5306 27.64 84.0426 27.544 84.5333 27.352C85.0453 27.1387 85.4933 26.84 85.8773 26.456C86.2613 26.072 86.5599 25.6027 86.7733 25.048C87.0079 24.4933 87.1253 23.864 87.1253 23.16C87.1253 22.456 87.0079 21.8267 86.7733 21.272C86.5599 20.7173 86.2613 20.248 85.8773 19.864C85.4933 19.48 85.0453 19.192 84.5333 19C84.0426 18.7867 83.5306 18.68 82.9973 18.68C82.4426 18.68 81.9199 18.7867 81.4293 19C80.9386 19.192 80.5013 19.48 80.1173 19.864C79.7333 20.248 79.4239 20.7173 79.1893 21.272C78.9759 21.8267 78.8693 22.456 78.8693 23.16C78.8693 23.864 78.9759 24.4933 79.1893 25.048C79.4239 25.6027 79.7333 26.072 80.1173 26.456C80.5013 26.84 80.9386 27.1387 81.4293 27.352C81.9199 27.544 82.4426 27.64 82.9973 27.64ZM93.6983 15.32H97.6343V17.496H97.8903C98.0823 17.112 98.3383 16.76 98.6583 16.44C98.9783 16.12 99.3303 15.8427 99.7143 15.608C100.12 15.3733 100.546 15.192 100.994 15.064C101.464 14.936 101.922 14.872 102.37 14.872C102.925 14.872 103.394 14.9253 103.778 15.032C104.184 15.1387 104.525 15.2773 104.802 15.448L103.682 19.256C103.426 19.128 103.138 19.032 102.818 18.968C102.52 18.8827 102.146 18.84 101.698 18.84C101.122 18.84 100.6 18.9573 100.13 19.192C99.6609 19.4053 99.2556 19.7147 98.9143 20.12C98.5943 20.5253 98.3383 21.0053 98.1463 21.56C97.9756 22.0933 97.8903 22.68 97.8903 23.32V31H93.6983V15.32ZM106.886 8.088H111.078V20.568H111.27L116.518 15.32H121.702V15.576L115.878 21.24L122.182 30.744V31H117.222L112.934 24.12L111.078 25.944V31H106.886V8.088ZM129.839 31H125.647V18.904H122.831V15.32H125.647V13.784C125.647 12.824 125.785 11.9813 126.062 11.256C126.361 10.5093 126.777 9.89067 127.311 9.4C127.844 8.888 128.473 8.504 129.199 8.248C129.924 7.97067 130.724 7.832 131.599 7.832C132.025 7.832 132.367 7.85333 132.623 7.896C132.879 7.93867 133.124 8.00267 133.359 8.088L133.103 12.024C132.953 11.96 132.783 11.9067 132.591 11.864C132.399 11.8213 132.153 11.8 131.855 11.8C131.236 11.8 130.745 12.0027 130.383 12.408C130.02 12.792 129.839 13.336 129.839 14.04V15.32H139.951V31H135.759V18.904H129.839V31ZM137.839 13.048C137.476 13.048 137.124 12.984 136.783 12.856C136.463 12.7067 136.175 12.5147 135.919 12.28C135.684 12.024 135.492 11.736 135.343 11.416C135.215 11.096 135.151 10.744 135.151 10.36C135.151 9.976 135.215 9.624 135.343 9.304C135.492 8.984 135.684 8.70667 135.919 8.472C136.175 8.216 136.463 8.024 136.783 7.896C137.124 7.74667 137.476 7.672 137.839 7.672C138.585 7.672 139.225 7.93867 139.759 8.472C140.292 8.984 140.559 9.61333 140.559 10.36C140.559 11.1067 140.292 11.7467 139.759 12.28C139.225 12.792 138.585 13.048 137.839 13.048ZM145.364 18.904H142.612V15.32H145.364V10.52H149.556V15.32H153.396V18.904H149.556V24.984C149.556 25.3467 149.588 25.688 149.652 26.008C149.737 26.3067 149.886 26.5627 150.1 26.776C150.398 27.1173 150.825 27.288 151.38 27.288C151.742 27.288 152.03 27.256 152.244 27.192C152.457 27.1067 152.66 27 152.852 26.872L154.036 30.552C153.545 30.7867 153.012 30.9573 152.436 31.064C151.881 31.192 151.262 31.256 150.58 31.256C149.79 31.256 149.076 31.1387 148.436 30.904C147.817 30.648 147.294 30.3067 146.868 29.88C145.865 28.92 145.364 27.5547 145.364 25.784V18.904Z" fill="black"/>
<defs>
<clipPath id="clip0_53_295">
<rect width="30" height="30" fill="white" transform="translate(0 4.5)"/>
</clipPath>
</defs>
</svg>
